<svg width="167" height="17" viewBox="0 0 167 17" fill="none" xmlns="http://www.w3.org/2000/svg">
<g filter="url(#filter0_d_73_14)">
<mask id="path-1-outside-1_73_14" maskUnits="userSpaceOnUse" x="-0.76001" y="-0.700012" width="166" height="16" fill="black">
<rect fill="white" x="-0.76001" y="-0.700012" width="166" height="16"/>
<path d="M16.2 14.3H0.99999V0.999987H16.2C19.392 0.999987 21.14 2.72899 21.14 5.93999V9.35999C21.14 12.571 19.392 14.3 16.2 14.3ZM6.31999 5.17999V10.12H14.756C15.459 10.12 15.82 9.75899 15.82 9.05599V6.24399C15.82 5.54099 15.459 5.17999 14.756 5.17999H6.31999ZM22.5809 14.3V0.999987H27.9769V14.3H22.5809ZM29.4222 10.31V4.98999C29.4222 2.25399 30.6952 0.999987 33.4122 0.999987H45.7622C48.4792 0.999987 49.7522 2.25399 49.7522 4.98999V6.05399H44.4322V5.78799C44.4322 5.12299 44.2232 4.91399 43.5582 4.91399H35.6162C34.9512 4.91399 34.7422 5.12299 34.7422 5.78799V9.89199C34.7422 10.557 34.9512 10.766 35.6162 10.766H43.7482C44.4132 10.766 44.6222 10.557 44.6222 9.89199V9.62599H39.4542V6.73799H49.7522V10.31C49.7522 13.046 48.4792 14.3 45.7622 14.3H33.4122C30.6952 14.3 29.4222 13.046 29.4222 10.31ZM51.1922 14.3V0.999987H56.5882V14.3H51.1922ZM57.6155 0.999987H76.6155V5.36999H69.7755V14.3H64.4555V5.36999H57.6155V0.999987ZM95.0798 14.3H88.8478L87.7268 12.324H79.5188L78.3978 14.3H72.4318L80.7538 0.999987H86.7578L95.0798 14.3ZM83.6228 5.10399L81.4758 8.90399H85.7888L83.6228 5.10399ZM100.967 0.999987V9.92999H112.747V14.3H95.6475V0.999987H100.967ZM113.777 14.3V0.999987H119.173V14.3H113.777ZM139.96 14.3H120.58V10.88L130.346 5.17999H120.96V0.999987H139.96V4.41999L130.194 10.12H139.96V14.3ZM162.99 14.3H156.758L155.637 12.324H147.429L146.308 14.3H140.342L148.664 0.999987H154.668L162.99 14.3ZM151.533 5.10399L149.386 8.90399H153.699L151.533 5.10399Z"/>
</mask>
<path d="M16.2 14.3H0.99999V0.999987H16.2C19.392 0.999987 21.14 2.72899 21.14 5.93999V9.35999C21.14 12.571 19.392 14.3 16.2 14.3ZM6.31999 5.17999V10.12H14.756C15.459 10.12 15.82 9.75899 15.82 9.05599V6.24399C15.82 5.54099 15.459 5.17999 14.756 5.17999H6.31999ZM22.5809 14.3V0.999987H27.9769V14.3H22.5809ZM29.4222 10.31V4.98999C29.4222 2.25399 30.6952 0.999987 33.4122 0.999987H45.7622C48.4792 0.999987 49.7522 2.25399 49.7522 4.98999V6.05399H44.4322V5.78799C44.4322 5.12299 44.2232 4.91399 43.5582 4.91399H35.6162C34.9512 4.91399 34.7422 5.12299 34.7422 5.78799V9.89199C34.7422 10.557 34.9512 10.766 35.6162 10.766H43.7482C44.4132 10.766 44.6222 10.557 44.6222 9.89199V9.62599H39.4542V6.73799H49.7522V10.31C49.7522 13.046 48.4792 14.3 45.7622 14.3H33.4122C30.6952 14.3 29.4222 13.046 29.4222 10.31ZM51.1922 14.3V0.999987H56.5882V14.3H51.1922ZM57.6155 0.999987H76.6155V5.36999H69.7755V14.3H64.4555V5.36999H57.6155V0.999987ZM95.0798 14.3H88.8478L87.7268 12.324H79.5188L78.3978 14.3H72.4318L80.7538 0.999987H86.7578L95.0798 14.3ZM83.6228 5.10399L81.4758 8.90399H85.7888L83.6228 5.10399ZM100.967 0.999987V9.92999H112.747V14.3H95.6475V0.999987H100.967ZM113.777 14.3V0.999987H119.173V14.3H113.777ZM139.96 14.3H120.58V10.88L130.346 5.17999H120.96V0.999987H139.96V4.41999L130.194 10.12H139.96V14.3ZM162.99 14.3H156.758L155.637 12.324H147.429L146.308 14.3H140.342L148.664 0.999987H154.668L162.99 14.3ZM151.533 5.10399L149.386 8.90399H153.699L151.533 5.10399Z" fill="white"/>
<path d="M0.99999 14.3H-9.71556e-06V15.3H0.99999V14.3ZM0.99999 0.999987V-1.33514e-05H-9.71556e-06V0.999987H0.99999ZM6.31999 5.17999V4.17999H5.31999V5.17999H6.31999ZM6.31999 10.12H5.31999V11.12H6.31999V10.12ZM16.2 14.3V13.3H0.99999V14.3V15.3H16.2V14.3ZM0.99999 14.3H1.99999V0.999987H0.99999H-9.71556e-06V14.3H0.99999ZM0.99999 0.999987V1.99999H16.2V0.999987V-1.33514e-05H0.99999V0.999987ZM16.2 0.999987V1.99999C17.6216 1.99999 18.5679 2.38263 19.1609 2.97397C19.7534 3.56483 20.14 4.5103 20.14 5.93999H21.14H22.14C22.14 4.15868 21.6526 2.63415 20.5731 1.55775C19.4941 0.481848 17.9704 -1.33514e-05 16.2 -1.33514e-05V0.999987ZM21.14 5.93999H20.14V9.35999H21.14H22.14V5.93999H21.14ZM21.14 9.35999H20.14C20.14 10.7897 19.7534 11.7351 19.1609 12.326C18.5679 12.9173 17.6216 13.3 16.2 13.3V14.3V15.3C17.9704 15.3 19.4941 14.8181 20.5731 13.7422C21.6526 12.6658 22.14 11.1413 22.14 9.35999H21.14ZM6.31999 5.17999H5.31999V10.12H6.31999H7.31999V5.17999H6.31999ZM6.31999 10.12V11.12H14.756V10.12V9.11999H6.31999V10.12ZM14.756 10.12V11.12C15.2684 11.12 15.8303 10.9871 16.2587 10.5587C16.6871 10.1303 16.82 9.56839 16.82 9.05599H15.82H14.82C14.82 9.1488 14.8078 9.19114 14.8052 9.19878C14.8042 9.20173 14.8059 9.19591 14.8127 9.18456C14.8198 9.17289 14.8303 9.15872 14.8445 9.14451C14.8587 9.13029 14.8729 9.11977 14.8846 9.11272C14.8959 9.10586 14.9017 9.10419 14.8988 9.10519C14.8911 9.10777 14.8488 9.11999 14.756 9.11999V10.12ZM15.82 9.05599H16.82V6.24399H15.82H14.82V9.05599H15.82ZM15.82 6.24399H16.82C16.82 5.73159 16.6871 5.16965 16.2587 4.74126C15.8303 4.31286 15.2684 4.17999 14.756 4.17999V5.17999V6.17999C14.8488 6.17999 14.8911 6.1922 14.8988 6.19478C14.9017 6.19578 14.8959 6.19411 14.8846 6.18726C14.8729 6.18021 14.8587 6.16968 14.8445 6.15547C14.8303 6.14126 14.8198 6.12708 14.8127 6.11541C14.8059 6.10406 14.8042 6.09824 14.8052 6.1012C14.8078 6.10883 14.82 6.15117 14.82 6.24399H15.82ZM14.756 5.17999V4.17999H6.31999V5.17999V6.17999H14.756V5.17999ZM22.5809 14.3H21.5809V15.3H22.5809V14.3ZM22.5809 0.999987V-1.33514e-05H21.5809V0.999987H22.5809ZM27.9769 0.999987H28.9769V-1.33514e-05H27.9769V0.999987ZM27.9769 14.3V15.3H28.9769V14.3H27.9769ZM22.5809 14.3H23.5809V0.999987H22.5809H21.5809V14.3H22.5809ZM22.5809 0.999987V1.99999H27.9769V0.999987V-1.33514e-05H22.5809V0.999987ZM27.9769 0.999987H26.9769V14.3H27.9769H28.9769V0.999987H27.9769ZM27.9769 14.3V13.3H22.5809V14.3V15.3H27.9769V14.3ZM49.7522 6.05399V7.05399H50.7522V6.05399H49.7522ZM44.4322 6.05399H43.4322V7.05399H44.4322V6.05399ZM44.6222 9.62599H45.6222V8.62599H44.6222V9.62599ZM39.4542 9.62599H38.4542V10.626H39.4542V9.62599ZM39.4542 6.73799V5.73799H38.4542V6.73799H39.4542ZM49.7522 6.73799H50.7522V5.73799H49.7522V6.73799ZM29.4222 10.31H30.4222V4.98999H29.4222H28.4222V10.31H29.4222ZM29.4222 4.98999H30.4222C30.4222 3.75791 30.7101 3.07002 31.1042 2.67737C31.4989 2.28403 32.1878 1.99999 33.4122 1.99999V0.999987V-1.33514e-05C31.9196 -1.33514e-05 30.6135 0.342941 29.6925 1.2606C28.7708 2.17896 28.4222 3.48607 28.4222 4.98999H29.4222ZM33.4122 0.999987V1.99999H45.7622V0.999987V-1.33514e-05H33.4122V0.999987ZM45.7622 0.999987V1.99999C46.9866 1.99999 47.6755 2.28403 48.0703 2.67737C48.4643 3.07002 48.7522 3.75791 48.7522 4.98999H49.7522H50.7522C50.7522 3.48607 50.4036 2.17896 49.4819 1.2606C48.5609 0.342941 47.2548 -1.33514e-05 45.7622 -1.33514e-05V0.999987ZM49.7522 4.98999H48.7522V6.05399H49.7522H50.7522V4.98999H49.7522ZM49.7522 6.05399V5.05399H44.4322V6.05399V7.05399H49.7522V6.05399ZM44.4322 6.05399H45.4322V5.78799H44.4322H43.4322V6.05399H44.4322ZM44.4322 5.78799H45.4322C45.4322 5.4135 45.3886 4.83137 44.9517 4.39451C44.5148 3.95764 43.9327 3.91399 43.5582 3.91399V4.91399V5.91399C43.6161 5.91399 43.6576 5.91631 43.6861 5.91919C43.7148 5.92209 43.7239 5.92494 43.7191 5.92365C43.7137 5.92221 43.6896 5.91531 43.6551 5.89683C43.6191 5.87756 43.5776 5.8488 43.5375 5.80872C43.4974 5.76864 43.4686 5.72713 43.4494 5.69113C43.4309 5.6566 43.424 5.63254 43.4226 5.62712C43.4213 5.62226 43.4241 5.63143 43.427 5.66012C43.4299 5.68862 43.4322 5.73007 43.4322 5.78799H44.4322ZM43.5582 4.91399V3.91399H35.6162V4.91399V5.91399H43.5582V4.91399ZM35.6162 4.91399V3.91399C35.2417 3.91399 34.6596 3.95764 34.2227 4.39451C33.7859 4.83137 33.7422 5.4135 33.7422 5.78799H34.7422H35.7422C35.7422 5.73007 35.7445 5.68862 35.7474 5.66012C35.7503 5.63143 35.7532 5.62226 35.7519 5.62712C35.7504 5.63254 35.7435 5.6566 35.725 5.69113C35.7058 5.72713 35.677 5.76864 35.6369 5.80872C35.5969 5.8488 35.5554 5.87756 35.5194 5.89683C35.4848 5.91531 35.4608 5.92221 35.4553 5.92365C35.4505 5.92494 35.4597 5.92209 35.4883 5.91919C35.5168 5.91631 35.5583 5.91399 35.6162 5.91399V4.91399ZM34.7422 5.78799H33.7422V9.89199H34.7422H35.7422V5.78799H34.7422ZM34.7422 9.89199H33.7422C33.7422 10.2665 33.7859 10.8486 34.2227 11.2855C34.6596 11.7223 35.2417 11.766 35.6162 11.766V10.766V9.76599C35.5583 9.76599 35.5168 9.76367 35.4883 9.76078C35.4597 9.75788 35.4505 9.75504 35.4553 9.75633C35.4608 9.75776 35.4848 9.76466 35.5194 9.78315C35.5554 9.80242 35.5969 9.83117 35.6369 9.87126C35.677 9.91134 35.7058 9.95285 35.725 9.98885C35.7435 10.0234 35.7504 10.0474 35.7519 10.0529C35.7532 10.0577 35.7503 10.0485 35.7474 10.0199C35.7445 9.99135 35.7422 9.9499 35.7422 9.89199H34.7422ZM35.6162 10.766V11.766H43.7482V10.766V9.76599H35.6162V10.766ZM43.7482 10.766V11.766C44.1227 11.766 44.7048 11.7223 45.1417 11.2855C45.5786 10.8486 45.6222 10.2665 45.6222 9.89199H44.6222H43.6222C43.6222 9.9499 43.6199 9.99135 43.617 10.0199C43.6141 10.0485 43.6113 10.0577 43.6125 10.0529C43.614 10.0474 43.6209 10.0234 43.6394 9.98885C43.6586 9.95285 43.6874 9.91134 43.7275 9.87126C43.7676 9.83117 43.8091 9.80242 43.8451 9.78315C43.8796 9.76466 43.9037 9.75776 43.9091 9.75633C43.9139 9.75504 43.9048 9.75788 43.8761 9.76078C43.8476 9.76367 43.8061 9.76599 43.7482 9.76599V10.766ZM44.6222 9.89199H45.6222V9.62599H44.6222H43.6222V9.89199H44.6222ZM44.6222 9.62599V8.62599H39.4542V9.62599V10.626H44.6222V9.62599ZM39.4542 9.62599H40.4542V6.73799H39.4542H38.4542V9.62599H39.4542ZM39.4542 6.73799V7.73799H49.7522V6.73799V5.73799H39.4542V6.73799ZM49.7522 6.73799H48.7522V10.31H49.7522H50.7522V6.73799H49.7522ZM49.7522 10.31H48.7522C48.7522 11.5421 48.4643 12.23 48.0703 12.6226C47.6755 13.0159 46.9866 13.3 45.7622 13.3V14.3V15.3C47.2548 15.3 48.5609 14.957 49.4819 14.0394C50.4036 13.121 50.7522 11.8139 50.7522 10.31H49.7522ZM45.7622 14.3V13.3H33.4122V14.3V15.3H45.7622V14.3ZM33.4122 14.3V13.3C32.1878 13.3 31.4989 13.0159 31.1042 12.6226C30.7101 12.23 30.4222 11.5421 30.4222 10.31H29.4222H28.4222C28.4222 11.8139 28.7708 13.121 29.6925 14.0394C30.6135 14.957 31.9196 15.3 33.4122 15.3V14.3ZM51.1922 14.3H50.1922V15.3H51.1922V14.3ZM51.1922 0.999987V-1.33514e-05H50.1922V0.999987H51.1922ZM56.5882 0.999987H57.5882V-1.33514e-05H56.5882V0.999987ZM56.5882 14.3V15.3H57.5882V14.3H56.5882ZM51.1922 14.3H52.1922V0.999987H51.1922H50.1922V14.3H51.1922ZM51.1922 0.999987V1.99999H56.5882V0.999987V-1.33514e-05H51.1922V0.999987ZM56.5882 0.999987H55.5882V14.3H56.5882H57.5882V0.999987H56.5882ZM56.5882 14.3V13.3H51.1922V14.3V15.3H56.5882V14.3ZM57.6155 0.999987V-1.33514e-05H56.6155V0.999987H57.6155ZM76.6155 0.999987H77.6155V-1.33514e-05H76.6155V0.999987ZM76.6155 5.36999V6.36999H77.6155V5.36999H76.6155ZM69.7755 5.36999V4.36999H68.7755V5.36999H69.7755ZM69.7755 14.3V15.3H70.7755V14.3H69.7755ZM64.4555 14.3H63.4555V15.3H64.4555V14.3ZM64.4555 5.36999H65.4555V4.36999H64.4555V5.36999ZM57.6155 5.36999H56.6155V6.36999H57.6155V5.36999ZM57.6155 0.999987V1.99999H76.6155V0.999987V-1.33514e-05H57.6155V0.999987ZM76.6155 0.999987H75.6155V5.36999H76.6155H77.6155V0.999987H76.6155ZM76.6155 5.36999V4.36999H69.7755V5.36999V6.36999H76.6155V5.36999ZM69.7755 5.36999H68.7755V14.3H69.7755H70.7755V5.36999H69.7755ZM69.7755 14.3V13.3H64.4555V14.3V15.3H69.7755V14.3ZM64.4555 14.3H65.4555V5.36999H64.4555H63.4555V14.3H64.4555ZM64.4555 5.36999V4.36999H57.6155V5.36999V6.36999H64.4555V5.36999ZM57.6155 5.36999H58.6155V0.999987H57.6155H56.6155V5.36999H57.6155ZM95.0798 14.3V15.3H96.8852L95.9276 13.7696L95.0798 14.3ZM88.8478 14.3L87.978 14.7934L88.2654 15.3H88.8478V14.3ZM87.7268 12.324L88.5966 11.8306L88.3092 11.324H87.7268V12.324ZM79.5188 12.324V11.324H78.9364L78.649 11.8306L79.5188 12.324ZM78.3978 14.3V15.3H78.9802L79.2676 14.7934L78.3978 14.3ZM72.4318 14.3L71.5841 13.7696L70.6265 15.3H72.4318V14.3ZM80.7538 0.999987V-1.33514e-05H80.1999L79.9061 0.469553L80.7538 0.999987ZM86.7578 0.999987L87.6056 0.469553L87.3117 -1.33514e-05H86.7578V0.999987ZM83.6228 5.10399L84.4916 4.60878L83.619 3.07789L82.7522 4.61207L83.6228 5.10399ZM81.4758 8.90399L80.6052 8.41207L79.7623 9.90399H81.4758V8.90399ZM85.7888 8.90399V9.90399H87.5099L86.6576 8.40878L85.7888 8.90399ZM95.0798 14.3V13.3H88.8478V14.3V15.3H95.0798V14.3ZM88.8478 14.3L89.7176 13.8066L88.5966 11.8306L87.7268 12.324L86.857 12.8174L87.978 14.7934L88.8478 14.3ZM87.7268 12.324V11.324H79.5188V12.324V13.324H87.7268V12.324ZM79.5188 12.324L78.649 11.8306L77.528 13.8066L78.3978 14.3L79.2676 14.7934L80.3886 12.8174L79.5188 12.324ZM78.3978 14.3V13.3H72.4318V14.3V15.3H78.3978V14.3ZM72.4318 14.3L73.2795 14.8304L81.6016 1.53042L80.7538 0.999987L79.9061 0.469553L71.5841 13.7696L72.4318 14.3ZM80.7538 0.999987V1.99999H86.7578V0.999987V-1.33514e-05H80.7538V0.999987ZM86.7578 0.999987L85.9101 1.53042L94.2321 14.8304L95.0798 14.3L95.9276 13.7696L87.6056 0.469553L86.7578 0.999987ZM83.6228 5.10399L82.7522 4.61207L80.6052 8.41207L81.4758 8.90399L82.3465 9.3959L84.4935 5.5959L83.6228 5.10399ZM81.4758 8.90399V9.90399H85.7888V8.90399V7.90399H81.4758V8.90399ZM85.7888 8.90399L86.6576 8.40878L84.4916 4.60878L83.6228 5.10399L82.7541 5.59919L84.9201 9.39919L85.7888 8.90399ZM100.967 0.999987H101.967V-1.33514e-05H100.967V0.999987ZM100.967 9.92999H99.9675V10.93H100.967V9.92999ZM112.747 9.92999H113.747V8.92999H112.747V9.92999ZM112.747 14.3V15.3H113.747V14.3H112.747ZM95.6475 14.3H94.6475V15.3H95.6475V14.3ZM95.6475 0.999987V-1.33514e-05H94.6475V0.999987H95.6475ZM100.967 0.999987H99.9675V9.92999H100.967H101.967V0.999987H100.967ZM100.967 9.92999V10.93H112.747V9.92999V8.92999H100.967V9.92999ZM112.747 9.92999H111.747V14.3H112.747H113.747V9.92999H112.747ZM112.747 14.3V13.3H95.6475V14.3V15.3H112.747V14.3ZM95.6475 14.3H96.6475V0.999987H95.6475H94.6475V14.3H95.6475ZM95.6475 0.999987V1.99999H100.967V0.999987V-1.33514e-05H95.6475V0.999987ZM113.777 14.3H112.777V15.3H113.777V14.3ZM113.777 0.999987V-1.33514e-05H112.777V0.999987H113.777ZM119.173 0.999987H120.173V-1.33514e-05H119.173V0.999987ZM119.173 14.3V15.3H120.173V14.3H119.173ZM113.777 14.3H114.777V0.999987H113.777H112.777V14.3H113.777ZM113.777 0.999987V1.99999H119.173V0.999987V-1.33514e-05H113.777V0.999987ZM119.173 0.999987H118.173V14.3H119.173H120.173V0.999987H119.173ZM119.173 14.3V13.3H113.777V14.3V15.3H119.173V14.3ZM139.96 14.3V15.3H140.96V14.3H139.96ZM120.58 14.3H119.58V15.3H120.58V14.3ZM120.58 10.88L120.076 10.0163L119.58 10.3058V10.88H120.58ZM130.346 5.17999L130.851 6.04364L134.044 4.17999H130.346V5.17999ZM120.96 5.17999H119.96V6.17999H120.96V5.17999ZM120.96 0.999987V-1.33514e-05H119.96V0.999987H120.96ZM139.96 0.999987H140.96V-1.33514e-05H139.96V0.999987ZM139.96 4.41999L140.465 5.28364L140.96 4.9942V4.41999H139.96ZM130.195 10.12L129.69 9.25633L126.497 11.12H130.195V10.12ZM139.96 10.12H140.96V9.11999H139.96V10.12ZM139.96 14.3V13.3H120.58V14.3V15.3H139.96V14.3ZM120.58 14.3H121.58V10.88H120.58H119.58V14.3H120.58ZM120.58 10.88L121.085 11.7436L130.851 6.04364L130.346 5.17999L129.842 4.31633L120.076 10.0163L120.58 10.88ZM130.346 5.17999V4.17999H120.96V5.17999V6.17999H130.346V5.17999ZM120.96 5.17999H121.96V0.999987H120.96H119.96V5.17999H120.96ZM120.96 0.999987V1.99999H139.96V0.999987V-1.33514e-05H120.96V0.999987ZM139.96 0.999987H138.96V4.41999H139.96H140.96V0.999987H139.96ZM139.96 4.41999L139.456 3.55633L129.69 9.25633L130.195 10.12L130.699 10.9836L140.465 5.28364L139.96 4.41999ZM130.195 10.12V11.12H139.96V10.12V9.11999H130.195V10.12ZM139.96 10.12H138.96V14.3H139.96H140.96V10.12H139.96ZM162.99 14.3V15.3H164.795L163.838 13.7696L162.99 14.3ZM156.758 14.3L155.888 14.7934L156.176 15.3H156.758V14.3ZM155.637 12.324L156.507 11.8306L156.219 11.324H155.637V12.324ZM147.429 12.324V11.324H146.847L146.559 11.8306L147.429 12.324ZM146.308 14.3V15.3H146.89L147.178 14.7934L146.308 14.3ZM140.342 14.3L139.494 13.7696L138.537 15.3H140.342V14.3ZM148.664 0.999987V-1.33514e-05H148.11L147.816 0.469553L148.664 0.999987ZM154.668 0.999987L155.516 0.469553L155.222 -1.33514e-05H154.668V0.999987ZM151.533 5.10399L152.402 4.60878L151.529 3.07789L150.662 4.61207L151.533 5.10399ZM149.386 8.90399L148.515 8.41207L147.672 9.90399H149.386V8.90399ZM153.699 8.90399V9.90399H155.42L154.568 8.40878L153.699 8.90399ZM162.99 14.3V13.3H156.758V14.3V15.3H162.99V14.3ZM156.758 14.3L157.628 13.8066L156.507 11.8306L155.637 12.324L154.767 12.8174L155.888 14.7934L156.758 14.3ZM155.637 12.324V11.324H147.429V12.324V13.324H155.637V12.324ZM147.429 12.324L146.559 11.8306L145.438 13.8066L146.308 14.3L147.178 14.7934L148.299 12.8174L147.429 12.324ZM146.308 14.3V13.3H140.342V14.3V15.3H146.308V14.3ZM140.342 14.3L141.19 14.8304L149.512 1.53042L148.664 0.999987L147.816 0.469553L139.494 13.7696L140.342 14.3ZM148.664 0.999987V1.99999H154.668V0.999987V-1.33514e-05H148.664V0.999987ZM154.668 0.999987L153.82 1.53042L162.142 14.8304L162.99 14.3L163.838 13.7696L155.516 0.469553L154.668 0.999987ZM151.533 5.10399L150.662 4.61207L148.515 8.41207L149.386 8.90399L150.257 9.3959L152.404 5.5959L151.533 5.10399ZM149.386 8.90399V9.90399H153.699V8.90399V7.90399H149.386V8.90399ZM153.699 8.90399L154.568 8.40878L152.402 4.60878L151.533 5.10399L150.664 5.59919L152.83 9.39919L153.699 8.90399Z" fill="black" mask="url(#path-1-outside-1_73_14)"/>
</g>
<defs>
<filter id="filter0_d_73_14" x="0" y="0" width="166.145" height="16.65" filterUnits="userSpaceOnUse" color-interpolation-filters="sRGB">
<feFlood flood-opacity="0" result="BackgroundImageFix"/>
<feColorMatrix in="SourceAlpha" type="matrix" values="0 0 0 0 0 0 0 0 0 0 0 0 0 0 0 0 0 0 127 0" result="hardAlpha"/>
<feOffset dx="1.35" dy="1.35"/>
<feColorMatrix type="matrix" values="0 0 0 0 0 0 0 0 0 0 0 0 0 0 0 0 0 0 1 0"/>
<feBlend mode="normal" in2="BackgroundImageFix" result="effect1_dropShadow_73_14"/>
<feBlend mode="normal" in="SourceGraphic" in2="effect1_dropShadow_73_14" result="shape"/>
</filter>
</defs>
</svg>
