<svg width="184" height="156" viewBox="0 0 184 156" fill="none" xmlns="http://www.w3.org/2000/svg">
<g filter="url(#filter0_d_136_533)">
<path d="M0.932892 147.022V24.5713H55.042L67.2736 36.0392H147.763V147.022H0.932892Z" fill="#0265FF"/>
<path d="M147.763 148H0.932913C0.414627 148 0 147.565 0 147.022V24.5713C0 24.0278 0.414627 23.593 0.932913 23.593H55.042C55.2493 23.593 55.5085 23.7017 55.664 23.8648L67.6364 35.0609H147.763C148.282 35.0609 148.696 35.4957 148.696 36.0392V147.022C148.748 147.565 148.282 148 147.763 148ZM1.86583 145.989H146.831V37.0175H67.2736C67.0663 37.0175 66.8071 36.9088 66.6516 36.7457L54.6792 25.5496H1.86583V145.989Z" fill="#093F68"/>
<path d="M131.244 0.955893L7.19611 13.2291L18.9584 143.961L143.006 131.688L131.244 0.955893Z" fill="#2B2E34"/>
<path d="M18.9693 144.956C18.5028 144.956 18.0882 144.576 18.0364 144.032L6.27127 13.3209C6.27127 13.0491 6.3231 12.7774 6.47859 12.6143C6.63407 12.3969 6.89321 12.2882 7.10053 12.2882L131.126 0.00516368C131.645 -0.0491862 132.111 0.331262 132.163 0.874762L143.928 131.641C143.98 132.184 143.617 132.673 143.099 132.728L19.0729 144.956H18.9693ZM8.24076 14.1361L19.7985 142.891L142.011 130.825L130.401 2.07046L8.24076 14.1361Z" fill="#093F68"/>
<path d="M143.928 17.071H19.3321V135.228H143.928V17.071Z" fill="white"/>
<path d="M143.928 136.206H19.3321C18.8138 136.206 18.3992 135.771 18.3992 135.228V17.071C18.3992 16.5275 18.8138 16.0927 19.3321 16.0927H143.928C144.446 16.0927 144.861 16.5275 144.861 17.071V135.228C144.861 135.771 144.446 136.206 143.928 136.206ZM20.265 134.249H142.943V18.0493H20.265V134.249Z" fill="#093F68"/>
<path d="M128.639 33.9195H103.709C103.191 33.9739 102.724 33.5391 102.673 32.9956C102.621 32.4521 103.035 31.9629 103.554 31.9086C103.605 31.9086 103.657 31.9086 103.709 31.9086H128.639C129.157 31.8542 129.623 32.289 129.675 32.8325C129.727 33.376 129.312 33.8652 128.794 33.9195C128.742 33.9195 128.691 33.9195 128.639 33.9195Z" fill="black"/>
<path d="M128.639 46.42H35.9691C35.4508 46.3656 35.0362 45.8765 35.088 45.333C35.1398 44.8438 35.5026 44.4634 35.9691 44.409H128.639C129.157 44.3547 129.623 44.7895 129.675 45.333C129.727 45.8765 129.312 46.3656 128.794 46.42C128.742 46.42 128.691 46.42 128.639 46.42Z" fill="black"/>
<path d="M128.639 58.9748H35.9691C35.4508 58.9748 35.0362 58.54 35.0362 57.9965C35.0362 57.453 35.4508 57.0182 35.9691 57.0182H128.639C129.157 57.0182 129.572 57.453 129.572 57.9965C129.572 58.54 129.157 58.9748 128.639 58.9748Z" fill="black"/>
<path d="M128.639 71.4753H35.9691C35.4508 71.421 35.0362 70.9318 35.088 70.3883C35.1398 69.8992 35.5026 69.5187 35.9691 69.4644H128.639C129.157 69.41 129.623 69.8448 129.675 70.3883C129.727 70.9318 129.312 71.421 128.794 71.4753C128.742 71.4753 128.691 71.4753 128.639 71.4753Z" fill="#70CC40"/>
<path d="M0.932892 147.022L23.3229 67.073H92.0995L102.206 57.29H174.973L148.852 147.022H0.932892Z" fill="#0265FF"/>
<path d="M148.852 148H0.932913C0.414627 148 0 147.565 0 147.022C0 146.913 -7.91615e-07 146.804 0.0518279 146.75L22.4418 66.8012C22.5455 66.3664 22.9083 66.0947 23.3747 66.0947H91.7885L101.636 56.5834C101.791 56.4204 102.051 56.3117 102.258 56.3117H175.025C175.336 56.3117 175.595 56.4747 175.803 56.6921C175.958 56.9639 176.062 57.29 175.958 57.5617L149.837 147.293C149.629 147.674 149.267 148 148.852 148ZM2.22863 145.989H148.178L173.73 58.2683H102.569L92.7215 67.7795C92.566 67.9426 92.3068 68.0513 92.0995 68.0513H24.0485L2.22863 145.989Z" fill="#093F68"/>
<path d="M142.425 135.88H112.054C111.535 135.826 111.121 135.336 111.172 134.793C111.224 134.304 111.587 133.923 112.054 133.869H142.425C142.943 133.815 143.41 134.249 143.462 134.793C143.514 135.336 143.099 135.826 142.581 135.88C142.529 135.88 142.477 135.88 142.425 135.88Z" fill="white"/>
<path d="M46.9568 33.9195H35.9691C35.4508 33.8652 35.0362 33.376 35.088 32.8325C35.1398 32.3434 35.5026 31.9629 35.9691 31.9086H46.9568C47.475 31.8542 47.9415 32.289 47.9933 32.8325C48.0452 33.376 47.6305 33.8652 47.1122 33.9195C47.0604 33.9195 47.0086 33.9195 46.9568 33.9195Z" fill="black"/>
</g>
<defs>
<filter id="filter0_d_136_533" x="0" y="0" width="183.4" height="155.4" filterUnits="userSpaceOnUse" color-interpolation-filters="sRGB">
<feFlood flood-opacity="0" result="BackgroundImageFix"/>
<feColorMatrix in="SourceAlpha" type="matrix" values="0 0 0 0 0 0 0 0 0 0 0 0 0 0 0 0 0 0 127 0" result="hardAlpha"/>
<feOffset dx="7.4" dy="7.4"/>
<feColorMatrix type="matrix" values="0 0 0 0 0 0 0 0 0 0 0 0 0 0 0 0 0 0 1 0"/>
<feBlend mode="normal" in2="BackgroundImageFix" result="effect1_dropShadow_136_533"/>
<feBlend mode="normal" in="SourceGraphic" in2="effect1_dropShadow_136_533" result="shape"/>
</filter>
</defs>
</svg>
