<svg width="45" height="45" viewBox="0 0 45 45" fill="none" xmlns="http://www.w3.org/2000/svg">
<rect width="45" height="45" fill="#0265FF"/>
<mask id="path-2-outside-1_186_377" maskUnits="userSpaceOnUse" x="12" y="13" width="20" height="19" fill="black">
<rect fill="white" x="12" y="13" width="20" height="19"/>
<path d="M30.0273 23.1484H22.7617V30.4141H21.2236V23.1484H13.9727V21.6104H21.2236V14.374H22.7617V21.6104H30.0273V23.1484Z"/>
</mask>
<path d="M30.0273 23.1484H22.7617V30.4141H21.2236V23.1484H13.9727V21.6104H21.2236V14.374H22.7617V21.6104H30.0273V23.1484Z" fill="black"/>
<path d="M30.0273 23.1484V24.1484H31.0273V23.1484H30.0273ZM22.7617 23.1484V22.1484H21.7617V23.1484H22.7617ZM22.7617 30.4141V31.4141H23.7617V30.4141H22.7617ZM21.2236 30.4141H20.2236V31.4141H21.2236V30.4141ZM21.2236 23.1484H22.2236V22.1484H21.2236V23.1484ZM13.9727 23.1484H12.9727V24.1484H13.9727V23.1484ZM13.9727 21.6104V20.6104H12.9727V21.6104H13.9727ZM21.2236 21.6104V22.6104H22.2236V21.6104H21.2236ZM21.2236 14.374V13.374H20.2236V14.374H21.2236ZM22.7617 14.374H23.7617V13.374H22.7617V14.374ZM22.7617 21.6104H21.7617V22.6104H22.7617V21.6104ZM30.0273 21.6104H31.0273V20.6104H30.0273V21.6104ZM30.0273 23.1484V22.1484H22.7617V23.1484V24.1484H30.0273V23.1484ZM22.7617 23.1484H21.7617V30.4141H22.7617H23.7617V23.1484H22.7617ZM22.7617 30.4141V29.4141H21.2236V30.4141V31.4141H22.7617V30.4141ZM21.2236 30.4141H22.2236V23.1484H21.2236H20.2236V30.4141H21.2236ZM21.2236 23.1484V22.1484H13.9727V23.1484V24.1484H21.2236V23.1484ZM13.9727 23.1484H14.9727V21.6104H13.9727H12.9727V23.1484H13.9727ZM13.9727 21.6104V22.6104H21.2236V21.6104V20.6104H13.9727V21.6104ZM21.2236 21.6104H22.2236V14.374H21.2236H20.2236V21.6104H21.2236ZM21.2236 14.374V15.374H22.7617V14.374V13.374H21.2236V14.374ZM22.7617 14.374H21.7617V21.6104H22.7617H23.7617V14.374H22.7617ZM22.7617 21.6104V22.6104H30.0273V21.6104V20.6104H22.7617V21.6104ZM30.0273 21.6104H29.0273V23.1484H30.0273H31.0273V21.6104H30.0273Z" fill="black" mask="url(#path-2-outside-1_186_377)"/>
</svg>
