<svg width="185" height="141" viewBox="0 0 185 141" fill="none" xmlns="http://www.w3.org/2000/svg">
<g filter="url(#filter0_d_136_549)">
<path d="M177.5 0.5V104.56H0.5V0.5H177.5Z" fill="white" stroke="#2B2E34"/>
<path d="M75.5463 94.5625L68.7841 128.684H113.876L103.509 94.5625H75.5463Z" fill="#181A1B"/>
<path d="M177.5 84.5698V104.559H0.500001V84.5698H177.5Z" fill="#0265FF" stroke="#2B2E34"/>
<path d="M69.509 52.7499H50.8669V71.4939H69.509V52.7499Z" fill="#0265FF"/>
<g opacity="0.08">
<path d="M3.44432 43.7257C3.44432 43.7257 10.1578 41.8474 11.3594 48.1663C12.561 54.4852 14.6529 61.1286 23.4972 60.9663C32.3415 60.804 48.8626 57.403 58.8598 68.2591C68.8522 79.1152 69.0566 98.7558 49.8842 105.059H28.9507L15.0032 86.7326L26.5767 71.0147L9.90484 65.6659L1.74648 58.3731L3.43945 43.7257H3.44432Z" fill="#0265FF"/>
</g>
<path d="M89.99 98.9915C93.9396 98.9915 97.1413 96.448 97.1413 93.3103C97.1413 90.1727 93.9396 87.6292 89.99 87.6292C86.0404 87.6292 82.8387 90.1727 82.8387 93.3103C82.8387 96.448 86.0404 98.9915 89.99 98.9915Z" fill="#181A1B"/>
<path d="M121.913 122.706H58.495V133.67H121.913V122.706Z" fill="#0265FF"/>
<path d="M14.4681 14.7517C16.1876 14.7517 17.5816 13.6443 17.5816 12.2783C17.5816 10.9123 16.1876 9.80486 14.4681 9.80486C12.7485 9.80486 11.3546 10.9123 11.3546 12.2783C11.3546 13.6443 12.7485 14.7517 14.4681 14.7517Z" fill="#181A1B"/>
<path d="M23.7356 14.7517C25.4551 14.7517 26.8491 13.6443 26.8491 12.2783C26.8491 10.9123 25.4551 9.80486 23.7356 9.80486C22.0161 9.80486 20.6221 10.9123 20.6221 12.2783C20.6221 13.6443 22.0161 14.7517 23.7356 14.7517Z" fill="#0265FF"/>
<path d="M32.468 14.7517C34.1876 14.7517 35.5815 13.6443 35.5815 12.2783C35.5815 10.9123 34.1876 9.80486 32.468 9.80486C30.7485 9.80486 29.3545 10.9123 29.3545 12.2783C29.3545 13.6443 30.7485 14.7517 32.468 14.7517Z" fill="#0265FF"/>
<path d="M97.3554 34.5663H78.7133V71.4939H97.3554V34.5663Z" fill="#0265FF"/>
<path d="M126.243 24.8194H107.601V71.4939H126.243V24.8194Z" fill="#0265FF"/>
<path d="M25.5697 32.3595H18.4767V36.7151H25.5697V32.3595Z" fill="white"/>
<g opacity="0.51">
<path d="M50.0642 32.3595H30.2594V36.7151H50.0642V32.3595Z" fill="white"/>
</g>
<path d="M25.5697 39.3895H18.4767V43.745H25.5697V39.3895Z" fill="white"/>
<g opacity="0.51">
<path d="M50.0642 39.3895H30.2594V43.745H50.0642V39.3895Z" fill="white"/>
</g>
<g opacity="0.51">
<path d="M168.158 9.80486H97.1365V14.1913H168.158V9.80486Z" fill="white"/>
</g>
</g>
<defs>
<filter id="filter0_d_136_549" x="0" y="0" width="184.683" height="140.353" filterUnits="userSpaceOnUse" color-interpolation-filters="sRGB">
<feFlood flood-opacity="0" result="BackgroundImageFix"/>
<feColorMatrix in="SourceAlpha" type="matrix" values="0 0 0 0 0 0 0 0 0 0 0 0 0 0 0 0 0 0 127 0" result="hardAlpha"/>
<feOffset dx="6.68349" dy="6.68349"/>
<feColorMatrix type="matrix" values="0 0 0 0 0 0 0 0 0 0 0 0 0 0 0 0 0 0 1 0"/>
<feBlend mode="normal" in2="BackgroundImageFix" result="effect1_dropShadow_136_549"/>
<feBlend mode="normal" in="SourceGraphic" in2="effect1_dropShadow_136_549" result="shape"/>
</filter>
</defs>
</svg>
