<svg width="200" height="200" viewBox="0 0 200 200" fill="none" xmlns="http://www.w3.org/2000/svg">
<g clip-path="url(#clip0_130_22225)">
<path d="M150.4 118.92H50.9201C48.3201 118.92 46.2401 116.84 46.2401 114.24V56.04C46.2401 53.44 48.3201 51.36 50.9201 51.36H150.4C153 51.36 155.08 53.44 155.08 56.04V114.28C155.08 116.84 153 118.92 150.4 118.92Z" fill="white"/>
<path d="M150.4 119.2H50.92C48.2 119.2 45.96 117 45.96 114.24V56.04C45.96 53.32 48.16 51.08 50.92 51.08H150.4C153.12 51.08 155.36 53.28 155.36 56.04V114.28C155.36 117 153.16 119.2 150.4 119.2ZM50.92 51.64C48.48 51.64 46.52 53.6 46.52 56.04V114.24C46.52 116.68 48.48 118.64 50.92 118.64H150.4C152.84 118.64 154.8 116.68 154.8 114.24V56.04C154.8 53.6 152.84 51.64 150.4 51.64H50.92Z" fill="#231F20"/>
<path d="M145.12 113.64H56.2C53.96 113.64 52.16 111.84 52.16 109.6V60.68C52.16 58.44 53.96 56.64 56.2 56.64H145.12C147.36 56.64 149.16 58.44 149.16 60.68V109.6C149.2 111.8 147.36 113.64 145.12 113.64Z" fill="white"/>
<path d="M145.16 113.92H56.2C53.8 113.92 51.88 112 51.88 109.6V60.68C51.88 58.28 53.84 56.36 56.2 56.36H145.12C147.52 56.36 149.44 58.32 149.44 60.68V109.6C149.44 112 147.52 113.92 145.16 113.92ZM56.2 56.92C54.12 56.92 52.44 58.6 52.44 60.68V109.6C52.44 111.68 54.12 113.36 56.2 113.36H145.12C147.2 113.36 148.88 111.68 148.88 109.6V60.68C148.88 58.6 147.2 56.92 145.12 56.92H56.2Z" fill="#D1D3D4"/>
<path d="M81.84 68.16H59.68C59.52 68.16 59.4 68.04 59.4 67.88C59.4 67.72 59.52 67.6 59.68 67.6H81.84C82 67.6 82.12 67.72 82.12 67.88C82.12 68 82 68.12 81.84 68.16Z" fill="#D1D3D4"/>
<path d="M81.84 74.2H59.68C59.52 74.2 59.4 74.08 59.4 73.92C59.4 73.76 59.52 73.64 59.68 73.64H81.84C82 73.64 82.12 73.76 82.12 73.92C82.12 74.08 82 74.2 81.84 74.2Z" fill="#D1D3D4"/>
<path d="M76.12 80.28H59.68C59.52 80.28 59.4 80.16 59.4 80C59.4 79.84 59.52 79.72 59.68 79.72H76.12C76.28 79.72 76.4 79.84 76.4 80C76.4 80.16 76.28 80.28 76.12 80.28Z" fill="#D1D3D4"/>
<path d="M143.56 100.4H117.4C117.24 100.4 117.12 100.28 117.12 100.12C117.12 99.96 117.24 99.84 117.4 99.84H143.56C143.72 99.84 143.84 99.96 143.84 100.12C143.84 100.28 143.72 100.4 143.56 100.4Z" fill="#D1D3D4"/>
<path d="M138.68 106.32H117.44C117.28 106.32 117.16 106.2 117.16 106.04C117.16 105.88 117.28 105.76 117.44 105.76H138.68C138.84 105.76 138.96 105.88 138.96 106.04C138.96 106.2 138.84 106.32 138.68 106.32Z" fill="#D1D3D4"/>
<path d="M112.48 79.8H102.6V90.68H112.48V79.8Z" fill="white"/>
<path d="M112.48 90.96H102.6C102.44 90.96 102.32 90.84 102.32 90.68V79.8C102.32 79.64 102.44 79.52 102.6 79.52H112.48C112.64 79.52 112.76 79.64 112.76 79.8V90.68C112.76 90.8 112.64 90.96 112.48 90.96ZM102.88 90.4H112.2V80.08H102.88V90.4Z" fill="#D1D3D4"/>
<path d="M128.64 70.56H118.76V90.68H128.64V70.56Z" fill="white"/>
<path d="M128.6 90.96H118.72C118.56 90.96 118.44 90.84 118.44 90.68V70.56C118.44 70.4 118.56 70.28 118.72 70.28H128.6C128.76 70.28 128.88 70.4 128.88 70.56V90.68C128.88 90.8 128.76 90.96 128.6 90.96ZM119 90.4H128.32V70.84H119V90.4Z" fill="#D1D3D4"/>
<path d="M144.76 62.56H134.88V90.64H144.76V62.56Z" fill="#0265FF"/>
<path d="M174.8 55.68H162.76C161.04 55.68 159.64 57.08 159.64 58.8V67.72L150.4 70.68H159.64V70.84C159.64 72.56 161.04 73.96 162.76 73.96H174.8C176.52 73.96 177.92 72.56 177.92 70.84V58.8C177.92 57.08 176.52 55.68 174.8 55.68Z" fill="white"/>
<path d="M174.8 74.2H162.76C160.92 74.2 159.44 72.76 159.36 70.96H150.4C150.24 70.96 150.12 70.84 150.12 70.68C150.12 70.56 150.2 70.44 150.32 70.4L159.36 67.52V58.8C159.36 56.92 160.88 55.4 162.76 55.4H174.8C176.68 55.4 178.2 56.92 178.2 58.8V70.84C178.2 72.72 176.68 74.2 174.8 74.2ZM152.2 70.4H159.64C159.8 70.4 159.92 70.52 159.92 70.68V70.84C159.92 72.4 161.2 73.68 162.76 73.68H174.8C176.36 73.68 177.64 72.4 177.64 70.84V58.8C177.64 57.24 176.36 55.96 174.8 55.96H162.76C161.2 55.96 159.92 57.24 159.92 58.8V67.72C159.92 67.84 159.84 67.96 159.72 68L152.2 70.4Z" fill="#231F20"/>
<path d="M174 61.24H164.16C164 61.24 163.88 61.12 163.88 60.96C163.88 60.8 164 60.68 164.16 60.68H174C174.16 60.68 174.28 60.8 174.28 60.96C174.28 61.12 174.16 61.24 174 61.24Z" fill="#D1D3D4"/>
<path d="M174 65.16H164.16C164 65.16 163.88 65.04 163.88 64.88C163.88 64.72 164 64.6 164.16 64.6H174C174.16 64.6 174.28 64.72 174.28 64.88C174.28 65.04 174.16 65.16 174 65.16Z" fill="#D1D3D4"/>
<path d="M171.48 69.04H164.16C164 69.04 163.88 68.92 163.88 68.76C163.88 68.6 164 68.48 164.16 68.48H171.48C171.64 68.48 171.76 68.6 171.76 68.76C171.76 68.92 171.64 69.04 171.48 69.04Z" fill="#D1D3D4"/>
<path d="M49.6 87.4H41.8V68C41.8 66.64 40.72 65.56 39.36 65.56H24.56C23.2 65.56 22.12 66.64 22.08 68V97.68C22.08 99.04 23.16 100.12 24.52 100.12H39.32C40.68 100.12 41.76 99.04 41.76 97.68V90.96L49.6 87.4Z" fill="white"/>
<path d="M39.36 100.4H24.56C23.04 100.4 21.84 99.16 21.84 97.68V68C21.84 66.48 23.08 65.28 24.56 65.28H39.36C40.88 65.28 42.08 66.52 42.08 68V87.16H49.6C49.76 87.16 49.88 87.28 49.88 87.44C49.88 87.56 49.8 87.64 49.72 87.68L42.12 91.16V97.68C42.12 99.2 40.88 100.4 39.36 100.4ZM24.56 65.8C23.36 65.8 22.4 66.76 22.36 67.96V68V97.68C22.36 98.88 23.32 99.84 24.52 99.84H39.32C40.52 99.84 41.48 98.88 41.48 97.68V90.96C41.48 90.84 41.56 90.76 41.64 90.72L48.24 87.72H41.76C41.6 87.72 41.48 87.6 41.48 87.44V68C41.48 66.8 40.52 65.84 39.32 65.84L24.56 65.8Z" fill="#231F20"/>
<path d="M38.96 70.4H25.08V78.08H38.96V70.4Z" fill="white"/>
<path d="M38.96 78.36H25.08C24.92 78.36 24.8 78.24 24.8 78.08V70.4C24.8 70.24 24.92 70.12 25.08 70.12H38.96C39.12 70.12 39.24 70.24 39.24 70.4V78.08C39.2 78.24 39.08 78.36 38.96 78.36ZM25.36 77.8H38.68V70.68H25.36V77.8Z" fill="#D1D3D4"/>
<path d="M38.96 80.92H25.08C24.92 80.92 24.8 80.8 24.8 80.64C24.8 80.48 24.92 80.36 25.08 80.36H38.96C39.12 80.36 39.24 80.48 39.24 80.64C39.24 80.8 39.08 80.92 38.96 80.92Z" fill="#D1D3D4"/>
<path d="M38.96 84.56H25.08C24.92 84.56 24.8 84.44 24.8 84.28C24.8 84.12 24.92 84 25.08 84H38.96C39.12 84 39.24 84.12 39.24 84.28C39.24 84.44 39.12 84.56 38.96 84.56Z" fill="#D1D3D4"/>
<path d="M38.96 88.24H25.08C24.92 88.24 24.8 88.12 24.8 87.96C24.8 87.8 24.92 87.68 25.08 87.68H38.96C39.12 87.68 39.24 87.8 39.24 87.96C39.24 88.12 39.12 88.24 38.96 88.24Z" fill="#D1D3D4"/>
<path d="M38.96 91.88H25.08C24.92 91.88 24.8 91.76 24.8 91.6C24.8 91.44 24.92 91.32 25.08 91.32H38.96C39.12 91.32 39.24 91.44 39.24 91.6C39.24 91.76 39.12 91.88 38.96 91.88Z" fill="#D1D3D4"/>
<path d="M35.3201 95.56H25.08C24.92 95.56 24.8 95.44 24.8 95.28C24.8 95.12 24.92 95 25.08 95H35.3201C35.4801 95 35.6 95.12 35.6 95.28C35.6 95.44 35.4801 95.56 35.3201 95.56Z" fill="#D1D3D4"/>
<path d="M127.36 124.56H95.08L91.28 111.32V124.56H81.16C78.88 124.56 77.04 126.4 77.04 128.68V139.8C77.04 142.08 78.88 143.92 81.16 143.92H127.4C129.68 143.92 131.52 142.08 131.52 139.8V128.68C131.48 126.4 129.64 124.56 127.36 124.56Z" fill="white"/>
<path d="M127.36 144.2H81.16C78.72 144.2 76.76 142.24 76.76 139.8V128.68C76.76 126.24 78.72 124.28 81.16 124.28H91V111.32C91 111.16 91.12 111.08 91.24 111.04C91.36 111.04 91.52 111.12 91.56 111.24L95.32 124.28H127.4C129.84 124.28 131.8 126.24 131.8 128.68V139.8C131.76 142.24 129.8 144.2 127.36 144.2ZM81.16 124.84C79.04 124.84 77.32 126.56 77.32 128.68V139.8C77.32 141.92 79.04 143.64 81.16 143.64H127.4C129.52 143.64 131.24 141.92 131.24 139.8V128.68C131.24 126.56 129.52 124.84 127.4 124.84H95.12C95 124.84 94.88 124.76 94.84 124.64L91.6 113.32V124.56C91.6 124.72 91.48 124.84 91.32 124.84H81.16Z" fill="#231F20"/>
<path d="M122.76 129.92H94.16C94 129.92 93.88 129.8 93.88 129.64C93.88 129.48 94 129.36 94.16 129.36H122.76C122.92 129.36 123.04 129.48 123.04 129.64C123.04 129.8 122.92 129.92 122.76 129.92Z" fill="#D1D3D4"/>
<path d="M122.76 134.52H94.16C94 134.52 93.88 134.4 93.88 134.24C93.88 134.08 94 133.96 94.16 133.96H122.76C122.92 133.96 123.04 134.08 123.04 134.24C123.04 134.4 122.92 134.52 122.76 134.52Z" fill="#D1D3D4"/>
<path d="M116.48 139.12H94.16C94 139.12 93.88 139 93.88 138.84C93.88 138.68 94 138.56 94.16 138.56H116.48C116.64 138.56 116.76 138.68 116.76 138.84C116.76 139 116.64 139.12 116.48 139.12Z" fill="#D1D3D4"/>
<path d="M86.36 139.32C89.1656 139.32 91.44 137.046 91.44 134.24C91.44 131.434 89.1656 129.16 86.36 129.16C83.5544 129.16 81.28 131.434 81.28 134.24C81.28 137.046 83.5544 139.32 86.36 139.32Z" fill="white"/>
<path d="M86.36 139.6C83.4 139.6 81 137.2 81 134.24C81 131.28 83.4 128.88 86.36 128.88C89.32 128.88 91.72 131.28 91.72 134.24C91.72 137.2 89.32 139.6 86.36 139.6ZM86.36 129.44C83.72 129.44 81.56 131.6 81.56 134.24C81.56 136.88 83.72 139.04 86.36 139.04C89 139.04 91.16 136.88 91.16 134.24C91.16 131.6 89 129.44 86.36 129.44Z" fill="#D1D3D4"/>
<path d="M88.16 129.64L86.36 134.24L89.56 138.16" fill="white"/>
<path d="M89.56 138.44C89.48 138.44 89.4 138.4 89.36 138.32L86.16 134.36C86.08 134.28 86.08 134.16 86.12 134.08L87.92 129.48C87.96 129.32 88.12 129.28 88.28 129.32C88.44 129.36 88.48 129.56 88.44 129.68L86.68 134.12L89.8 137.92C89.92 138.04 89.88 138.2 89.76 138.32C89.68 138.44 89.64 138.48 89.56 138.44Z" fill="#D1D3D4"/>
<path d="M81.8 136.8C81.68 136.8 81.6 136.76 81.56 136.64C81.48 136.52 81.56 136.32 81.68 136.28L86.24 134C86.36 133.92 86.56 134 86.6 134.12C86.68 134.24 86.6 134.44 86.48 134.48L81.92 136.76C81.88 136.8 81.84 136.8 81.8 136.8Z" fill="#D1D3D4"/>
<path d="M108.64 107.56C108.56 107.56 108.48 107.52 108.44 107.48L100.16 97.96L94.12 103.64C94 103.76 93.84 103.76 93.72 103.64L84.88 94.84C84.76 94.72 84.76 94.56 84.88 94.44C85 94.32 85.16 94.32 85.28 94.44L93.96 103.08L100 97.4C100.04 97.36 100.12 97.32 100.2 97.32C100.28 97.32 100.36 97.36 100.4 97.4L108.88 107.12C109 107.24 108.96 107.4 108.88 107.52C108.76 107.56 108.72 107.56 108.64 107.56Z" fill="#D1D3D4"/>
<path d="M71.72 96.64L71.52 96.48C70.6 95.68 70.48 94.32 71.28 93.4L82.64 80.2L86.16 83.24L74.8 96.44C74.04 97.32 72.64 97.44 71.72 96.64Z" fill="white"/>
<path d="M73.16 97.44C72.56 97.44 72 97.24 71.56 96.84L71.36 96.68C70.32 95.8 70.2001 94.24 71.0801 93.2L82.4401 80C82.5601 79.88 82.7201 79.88 82.8401 79.96L86.36 83C86.4801 83.08 86.4801 83.28 86.4001 83.4L75.0401 96.6C74.6001 97.08 74 97.4 73.36 97.44C73.28 97.44 73.24 97.44 73.16 97.44ZM71.7201 96.24L71.9201 96.4C72.7201 97.08 73.9201 97 74.6001 96.2L85.8001 83.2L82.6801 80.52L71.4801 93.52C70.8001 94.36 70.9201 95.56 71.7201 96.24Z" fill="#231F20"/>
<path d="M91.7554 67.4339L80.6351 80.3451L86.333 85.2526L97.4533 72.3414L91.7554 67.4339Z" fill="white"/>
<path d="M86.3201 85.56C86.2401 85.56 86.2001 85.52 86.1601 85.48L80.4401 80.56C80.3201 80.44 80.3201 80.28 80.4001 80.16L91.5201 67.24C91.5601 67.2 91.6401 67.16 91.7201 67.16C91.8001 67.16 91.8801 67.2 91.9201 67.24L97.6401 72.16C97.7601 72.28 97.7601 72.44 97.6801 72.56L86.5601 85.48C86.4801 85.48 86.4401 85.52 86.3201 85.56ZM81.0401 80.32L86.3201 84.88L97.0801 72.4L91.8001 67.84L81.0401 80.32Z" fill="#231F20"/>
<path d="M57.2801 114.92L55.6001 113.48C54.4801 112.52 54.3601 110.84 55.3201 109.72L71.2001 91.28C72.1601 90.16 73.84 90.04 74.9601 91L76.6401 92.44C77.7601 93.4 77.8801 95.08 76.9201 96.2L61.0401 114.64C60.0401 115.76 58.3601 115.88 57.2801 114.92Z" fill="white"/>
<path d="M59 115.84C58.28 115.84 57.6 115.6 57.08 115.12L55.4 113.68C54.16 112.64 54.04 110.76 55.08 109.52L70.96 91.08C72 89.84 73.88 89.72 75.12 90.76L76.8 92.2C78.04 93.24 78.16 95.12 77.12 96.36L61.24 114.8C60.72 115.4 60 115.76 59.24 115.8L59 115.84ZM55.76 113.28L57.44 114.72C58.44 115.56 59.92 115.44 60.8 114.48L76.68 96.08C77.52 95.08 77.4 93.6 76.44 92.72L74.76 91.28C73.76 90.44 72.28 90.56 71.4 91.52L55.52 109.96C54.68 110.92 54.8 112.44 55.76 113.28Z" fill="#231F20"/>
<path d="M97.4401 86.6C108.486 86.6 117.44 77.6457 117.44 66.6C117.44 55.5543 108.486 46.6 97.4401 46.6C86.3944 46.6 77.4401 55.5543 77.4401 66.6C77.4401 77.6457 86.3944 86.6 97.4401 86.6Z" fill="white"/>
<path d="M97.44 86.84C86.24 86.84 77.2 77.72 77.2 66.56C77.2 55.4 86.32 46.32 97.48 46.32C108.68 46.32 117.72 55.44 117.72 66.6C117.72 71.44 115.96 76.12 112.8 79.8C108.96 84.32 103.32 86.88 97.44 86.84ZM97.48 46.88C97 46.88 96.48 46.88 96 46.92C85.16 47.72 77.04 57.16 77.88 68C78.72 78.84 88.12 86.96 98.96 86.12C109.8 85.32 117.92 75.88 117.08 65.04C116.28 54.8 107.76 46.88 97.48 46.88Z" fill="#231F20"/>
<path d="M97.44 82.84C106.409 82.84 113.68 75.5691 113.68 66.6C113.68 57.6309 106.409 50.36 97.44 50.36C88.4709 50.36 81.2 57.6309 81.2 66.6C81.2 75.5691 88.4709 82.84 97.44 82.84Z" fill="white"/>
<path d="M97.44 83.12C88.32 83.12 80.92 75.72 80.92 66.6C80.92 62.64 82.36 58.8 84.92 55.8C90.88 48.88 101.32 48.12 108.2 54.04C115.12 60 115.88 70.44 109.96 77.32C106.84 81 102.24 83.12 97.44 83.12ZM97.48 50.64C97.08 50.64 96.68 50.64 96.28 50.68C92.04 51 88.12 52.96 85.36 56.2C79.6 62.88 80.36 72.96 87.04 78.72C93.72 84.48 103.8 83.72 109.56 77.04C115.32 70.36 114.56 60.28 107.88 54.52C104.96 52 101.28 50.64 97.48 50.64Z" fill="#231F20"/>
<path d="M172.969 188.08V175.96C170.849 174.08 169.009 171.96 167.529 169.56C165.049 165.6 156.289 151.04 160.329 149.72C164.369 148.4 175.529 162.08 175.529 162.08L176.089 142C176.089 142 184.849 148.84 187.489 156.36C190.129 163.88 189.049 192.08 189.049 192.08L172.969 188.08Z" fill="white"/>
<path d="M189.049 133C189.009 133 189.009 133 188.969 133L172.889 129.04C172.769 129 172.689 128.88 172.689 128.76V116.76C170.609 114.88 168.769 112.76 167.289 110.4C165.049 106.84 157.809 94.92 159.169 91.2C159.329 90.68 159.729 90.28 160.249 90.12C162.049 89.56 165.209 91.48 169.649 95.88C172.129 98.32 174.329 100.88 175.289 102L175.849 82.68C175.849 82.56 175.929 82.48 176.009 82.44C176.089 82.4 176.209 82.4 176.289 82.48C176.369 82.56 185.129 89.48 187.809 96.96C190.489 104.44 189.409 131.64 189.369 132.76C189.369 132.84 189.329 132.92 189.249 132.96C189.169 132.96 189.089 132.96 189.049 133ZM173.249 128.52L188.809 132.36C188.929 129.12 189.689 104 187.249 97.08C185.009 90.72 178.169 84.72 176.369 83.24L175.809 102.76C175.809 102.92 175.689 103.04 175.529 103.04C175.449 103.04 175.369 103 175.329 102.92C172.249 99.16 163.569 89.6 160.409 90.64C160.049 90.76 159.809 91 159.689 91.36C158.689 94.12 163.409 103.16 167.769 110.04C169.249 112.4 171.049 114.52 173.129 116.36C173.209 116.4 173.249 116.48 173.249 116.56V128.52Z" fill="#231F20"/>
<path d="M191.489 123.36H169.089V132.96L193.729 137.56L191.489 123.36Z" fill="#231F20"/>
<path d="M193.729 197.2H193.689L169.049 192.6C168.929 192.56 168.809 192.44 168.809 192.32V182.72C168.809 182.56 168.929 182.44 169.089 182.44H191.489C191.609 182.44 191.729 182.56 191.769 182.68L193.969 196.88C193.969 196.96 193.969 197.04 193.889 197.12C193.849 197.2 193.809 197.2 193.729 197.2ZM169.369 192.12L193.369 196.6L191.249 183.04H169.369V192.12Z" fill="#231F20"/>
<path d="M194.849 189.84L167.089 188.52V210.48L197.049 207.36L194.849 189.84Z" fill="#0265FF"/>
<path d="M56.8 127.36C57.72 125.32 58.76 123.32 59.92 121.36C60.72 120 61.56 118.28 62.68 117.16C63.8 116.04 65.48 115.32 66.76 114.16C71.64 109.76 76.56 104.8 78.04 98.36C78.28 97.32 78.08 95.84 77.04 95.8C76.64 95.8 76.28 95.96 75.96 96.2C73.32 97.92 71.4 100.76 68.84 102.36C69.52 101.92 69.72 96.48 70.12 95.4C70.96 93.32 72.24 91.36 73.24 89.32C73.64 88.48 74.04 87.56 73.68 86.68C73.36 85.88 72.48 85.44 71.6 85.44C70.76 85.48 69.92 85.68 69.12 86C66.12 87.12 63.16 88.36 60.24 89.64C59.28 90 58.36 90.52 57.52 91.16C56.64 91.96 55.92 92.92 55.36 93.92C53.12 97.48 46.72 109.6 45.76 112.36C45.44 113.36 41.72 124.76 41.2 124.68L56.8 127.36Z" fill="white"/>
<path d="M56.8 127.64H56.76L41.16 124.96C41 124.92 40.92 124.8 40.92 124.64C40.92 124.56 41 124.48 41.08 124.44C41.36 124.08 42.32 121.8 45.2 113.16C45.36 112.72 45.44 112.4 45.48 112.28C46.4 109.56 52.76 97.52 55.08 93.8C55.68 92.76 56.44 91.8 57.32 90.96C58.16 90.32 59.12 89.8 60.08 89.4C63 88.12 66 86.88 68.96 85.76C69.76 85.4 70.68 85.2 71.56 85.2C72.44 85.24 73.52 85.68 73.88 86.64C74.24 87.6 73.84 88.6 73.44 89.48C73.04 90.36 72.52 91.2 72.08 92C71.4 93.12 70.84 94.32 70.32 95.52C70.12 96.44 69.96 97.36 69.88 98.32C69.76 99.44 69.6 100.52 69.4 101.6C70.4 100.84 71.32 100 72.16 99.08C73.24 97.92 74.44 96.88 75.72 96C76.08 95.72 76.52 95.56 76.96 95.56C77.32 95.56 77.68 95.76 77.92 96.08C78.4 96.68 78.4 97.72 78.24 98.48C76.76 105.04 71.56 110.16 66.88 114.44C66.24 114.96 65.6 115.44 64.88 115.88C64.16 116.32 63.44 116.84 62.84 117.4C62 118.24 61.28 119.52 60.64 120.64C60.48 120.96 60.32 121.24 60.16 121.52C59.04 123.44 58 125.44 57.08 127.48C57 127.6 56.92 127.64 56.8 127.64ZM41.68 124.48L56.64 127.04C57.56 125.04 58.56 123.12 59.68 121.2C59.84 120.92 60 120.64 60.16 120.32C60.8 119.16 61.56 117.84 62.48 116.92C63.16 116.32 63.88 115.76 64.64 115.32C65.32 114.92 65.96 114.44 66.56 113.92C71.2 109.72 76.28 104.68 77.76 98.28C77.92 97.68 77.88 96.8 77.52 96.32C77.4 96.16 77.2 96.04 77 96.04C76.68 96.08 76.36 96.2 76.08 96.4C74.84 97.28 73.68 98.28 72.6 99.4C71.52 100.56 70.28 101.64 68.96 102.52C68.84 102.6 68.64 102.56 68.56 102.44C68.48 102.32 68.52 102.12 68.64 102.04C68.96 101.8 69.2 99.52 69.36 98.16C69.44 97.16 69.6 96.2 69.84 95.24C70.36 94 70.96 92.8 71.64 91.64C72.08 90.8 72.56 89.96 72.96 89.12C73.36 88.28 73.68 87.44 73.4 86.72C73.12 86 72.28 85.68 71.6 85.64C70.8 85.68 69.96 85.84 69.24 86.2C66.28 87.32 63.28 88.56 60.36 89.84C59.4 90.2 58.52 90.72 57.72 91.32C56.88 92.12 56.16 93.04 55.6 94.04C53.28 97.72 46.96 109.72 46.04 112.4L45.76 113.28C43.24 120.88 42.2 123.56 41.68 124.48Z" fill="#231F20"/>
<path d="M60.32 125.24L38.92 118.56L35.32 128.04L57.12 133.76L60.32 125.24Z" fill="#231F20"/>
<path d="M57.12 134.04C57.08 134.04 57.08 134.04 57.04 134.04L35.24 128.32C35.16 128.28 35.08 128.24 35.08 128.16C35.04 128.08 35.04 128 35.08 127.92L38.68 118.4C38.72 118.28 38.88 118.2 39.04 118.24L60.44 124.96C60.52 125 60.56 125.04 60.6 125.12C60.64 125.2 60.64 125.28 60.6 125.32L57.44 133.8C57.36 133.96 57.24 134.04 57.12 134.04ZM35.68 127.84L56.92 133.4L59.92 125.44L39.08 118.88L35.68 127.84Z" fill="#231F20"/>
<path d="M59.56 132.6L33.16 124.72L24.08 144.36L54.04 153.68L59.56 132.6Z" fill="#0265FF"/>
<path d="M56.36 126.88C56.28 126.64 56.16 126.4 55.96 126.24L55.64 126C55.4 125.88 55.16 125.8 54.88 125.8H54.64C53.84 125.84 53.2 126.48 53.16 127.28L53.2 127.68C53.28 127.92 53.4 128.16 53.56 128.32L53.88 128.56C54.12 128.68 54.36 128.76 54.64 128.76H54.88C55.08 128.76 55.28 128.72 55.44 128.64C55.64 128.6 55.8 128.48 55.92 128.32C56.08 128.2 56.16 128.04 56.24 127.84C56.32 127.68 56.36 127.48 56.36 127.28C56.4 127.16 56.36 127 56.36 126.88Z" fill="white"/>
<path d="M173.329 124.56C171.409 124.56 171.409 127.52 173.329 127.52C175.249 127.52 175.209 124.56 173.329 124.56Z" fill="white"/>
<path d="M90.8 65.8H85.48C85.4 65.8 85.32 65.76 85.28 65.72C85.24 65.68 85.2 65.6 85.2 65.52C85.36 62.76 86.44 60.16 88.28 58.12C88.64 57.72 89.04 57.32 89.44 56.96C91.48 55.12 94.12 54.04 96.84 53.88C97 53.88 97.12 54 97.12 54.12C97.12 54.12 97.12 54.12 97.12 54.16V59.48C97.12 59.64 97 59.72 96.88 59.76C95.64 59.92 94.52 60.4 93.52 61.16C93.12 61.48 92.76 61.84 92.44 62.24C91.68 63.2 91.2 64.36 91.04 65.6C91.08 65.72 90.96 65.8 90.8 65.8ZM85.8 65.24H90.56C90.76 64 91.24 62.84 92.04 61.88C92.4 61.44 92.76 61.04 93.2 60.72C94.16 59.96 95.36 59.44 96.56 59.24V54.48C94.04 54.68 91.68 55.72 89.8 57.4C89.4 57.72 89.04 58.12 88.72 58.48C87.04 60.36 86 62.72 85.8 65.24Z" fill="#D1D3D4"/>
<path d="M109.8 65.52C109.64 62.84 108.56 60.28 106.8 58.28L103.04 62.04C103.84 63.04 104.32 64.24 104.48 65.52C104.52 65.8 104.52 66.04 104.52 66.32C104.52 66.6 104.52 66.84 104.48 67.12C104.32 68.4 103.84 69.6 103.04 70.6C102.72 71 102.32 71.4 101.92 71.72C100.92 72.52 99.72 73.04 98.44 73.16C98.16 73.2 97.92 73.2 97.64 73.2C97.36 73.2 97.12 73.2 96.84 73.16C95.56 73 94.36 72.52 93.36 71.72C91.92 70.6 91 68.92 90.8 67.12H85.48C85.64 69.8 86.72 72.36 88.48 74.36C88.84 74.76 89.2 75.12 89.6 75.48C91.6 77.24 94.16 78.32 96.84 78.48C97.12 78.48 97.36 78.52 97.64 78.52C97.92 78.52 98.16 78.52 98.44 78.48C101.12 78.32 103.68 77.24 105.68 75.48C106.08 75.12 106.44 74.76 106.8 74.36C108.56 72.36 109.64 69.8 109.8 67.12C109.8 66.84 109.84 66.6 109.84 66.32C109.84 66.04 109.84 65.8 109.8 65.52Z" fill="#0265FF"/>
<path d="M101.92 61.2C101.84 61.2 101.8 61.16 101.76 61.16C100.8 60.4 99.64 59.92 98.4 59.76C98.24 59.76 98.16 59.64 98.16 59.48V54.16C98.16 54 98.28 53.88 98.44 53.88C101.2 54.04 103.8 55.12 105.84 56.96C105.96 57.08 105.96 57.24 105.84 57.36L102.08 61.12C102.08 61.16 102 61.2 101.92 61.2ZM98.72 59.24C99.88 59.4 100.96 59.88 101.88 60.56L105.24 57.2C103.4 55.64 101.12 54.68 98.68 54.48V59.24H98.72Z" fill="#D1D3D4"/>
</g>
<defs>
<clipPath id="clip0_130_22225">
<rect width="200" height="200" fill="white"/>
</clipPath>
</defs>
</svg>
