<svg width="224" height="201" viewBox="0 0 224 201" fill="none" xmlns="http://www.w3.org/2000/svg">
<g filter="url(#filter0_d_130_22439)">
<path d="M169.788 44.4648H44.2124V156.544H169.788V44.4648Z" fill="white"/>
<path d="M169.788 156.773H44.2124C44.084 156.773 43.9556 156.658 43.9556 156.544V44.4648C43.9556 44.3502 44.084 44.2356 44.2124 44.2356H169.788C169.916 44.2356 170.044 44.3502 170.044 44.4648V156.544C170.044 156.658 169.916 156.773 169.788 156.773ZM44.512 156.314H169.488V44.7322H44.512V156.314Z" fill="#231F20"/>
<path d="M173.126 39.1168H40.874V44.4648H173.126V39.1168Z" fill="white"/>
<path d="M173.126 44.7322H40.874C40.7028 44.7322 40.6172 44.6176 40.6172 44.503V39.155C40.6172 39.0022 40.7456 38.9258 40.874 38.9258H173.126C173.297 38.9258 173.383 39.0404 173.383 39.155V44.503C173.426 44.6176 173.297 44.7322 173.126 44.7322ZM41.1308 44.2356H172.869V39.346H41.1308V44.2356Z" fill="#231F20"/>
<path d="M173.126 156.544H40.874V161.892H173.126V156.544Z" fill="white"/>
<path d="M173.126 162.159H40.874C40.7028 162.159 40.6172 162.044 40.6172 161.93V156.582C40.6172 156.429 40.7456 156.353 40.874 156.353H173.126C173.297 156.353 173.383 156.467 173.383 156.582V161.93C173.426 162.044 173.297 162.159 173.126 162.159ZM41.1308 161.662H172.869V156.773H41.1308V161.662Z" fill="#231F20"/>
<path d="M107 32.2408C108.04 32.2408 108.883 31.4883 108.883 30.56C108.883 29.6317 108.04 28.8792 107 28.8792C105.96 28.8792 105.117 29.6317 105.117 30.56C105.117 31.4883 105.96 32.2408 107 32.2408Z" fill="#D1D3D4"/>
<path d="M169.788 44.4648H44.2124V47.2152H169.788V44.4648Z" fill="#231F20"/>
<path d="M169.788 47.4826H44.2124C44.0412 47.4826 43.9128 47.368 43.9128 47.2152V44.4648C43.9128 44.312 44.0412 44.1974 44.2124 44.1974H169.788C169.959 44.1974 170.087 44.312 170.087 44.4648V47.2152C170.087 47.368 169.959 47.4826 169.788 47.4826ZM44.512 46.9478H169.488V44.7322H44.512V46.9478Z" fill="#231F20"/>
<path d="M106.7 135.908C104.3 131.008 102 126.408 99.7 121.708C92.3 106.708 84.9 91.6079 77.4 76.6079C74.5 71.2079 73 65.3079 73 59.2079C73.3 40.5079 88.8 25.6079 107.5 26.0079C122.7 26.3079 135.8 36.6079 139.6 51.3079C141.7 59.2079 140.7 67.6079 137 74.8079C130.8 87.4079 124.5 99.9079 118.3 112.508C114.6 119.908 111 127.208 107.3 134.608C107.1 135.108 106.9 135.408 106.7 135.908ZM106.7 76.7079C116.1 76.7079 123.7 69.2079 123.7 59.8079C123.7 50.4079 116.2 42.8079 106.8 42.8079C97.4 42.8079 89.8 50.3079 89.8 59.7079C89.8 69.1079 97.3 76.6079 106.7 76.7079Z" fill="#0A51F5"/>
</g>
<defs>
<filter id="filter0_d_130_22439" x="0" y="0" width="223.55" height="200.55" filterUnits="userSpaceOnUse" color-interpolation-filters="sRGB">
<feFlood flood-opacity="0" result="BackgroundImageFix"/>
<feColorMatrix in="SourceAlpha" type="matrix" values="0 0 0 0 0 0 0 0 0 0 0 0 0 0 0 0 0 0 127 0" result="hardAlpha"/>
<feOffset dx="9.55" dy="9.55"/>
<feColorMatrix type="matrix" values="0 0 0 0 0 0 0 0 0 0 0 0 0 0 0 0 0 0 1 0"/>
<feBlend mode="normal" in2="BackgroundImageFix" result="effect1_dropShadow_130_22439"/>
<feBlend mode="normal" in="SourceGraphic" in2="effect1_dropShadow_130_22439" result="shape"/>
</filter>
</defs>
</svg>
